<svg width="49" height="42" viewBox="0 0 49 42" fill="none" xmlns="http://www.w3.org/2000/svg">
<path d="M12.3033 8.06467C8.46877 7.96119 5.5529 7.74674 2.81219 6.60562C2.02958 6.27981 1.2679 5.8093 0.63391 5.25207C-0.236585 4.48687 -0.186264 3.56231 0.635847 2.73456C1.61138 1.75229 2.87772 1.2843 4.17285 0.923532C7.078 0.114173 10.047 -0.113911 13.0564 0.0495976C15.1689 0.164296 17.2588 0.415825 19.2571 1.11938C20.1118 1.42032 20.9617 1.81414 21.7093 2.3177C23.2296 3.34181 23.1966 4.65493 21.6995 5.73441C20.4065 6.66666 18.9122 7.15243 17.3701 7.41093C15.3994 7.74129 13.404 7.92703 12.3033 8.06467Z" transform="translate(26.1565 9.70117)" fill="white"/>
<path d="M11.3493 8.04422C8.4977 7.97348 5.55233 7.74712 2.77283 6.607C2.07699 6.32162 1.38931 5.93387 0.816974 5.45385C-0.302686 4.51494 -0.258181 3.46668 0.868726 2.50796C1.84385 1.67839 3.02608 1.23647 4.24322 0.906928C7.59434 -0.000455852 11.0041 -0.180133 14.4516 0.16083C16.6087 0.37416 18.7298 0.740286 20.6895 1.70709C21.2289 1.97317 21.7483 2.32616 22.1877 2.73352C23.0528 3.5354 23.0417 4.45703 22.2064 5.29671C21.2035 6.30474 19.8946 6.74686 18.5695 7.13068C16.2514 7.80199 13.8668 7.99329 11.3493 8.04422Z" transform="translate(13.0989 24.248)" fill="white"/>
<path d="M11.3913 8.03707C8.74338 7.97886 6.12587 7.75624 3.59931 6.92121C2.54682 6.57337 1.52576 6.1547 0.709469 5.37566C-0.228498 4.4804 -0.239114 3.55887 0.693647 2.66139C1.68929 1.70338 2.96124 1.2563 4.2579 0.899271C7.14989 0.102948 10.1021 -0.116041 13.0939 0.0538348C15.4806 0.189351 17.8362 0.49161 20.0524 1.42123C20.7903 1.73076 21.5143 2.15944 22.1169 2.67887C23.0977 3.52421 23.06 4.47898 22.11 5.37566C21.1079 6.32134 19.8358 6.76003 18.5409 7.131C16.204 7.8005 13.8034 7.98968 11.3913 8.03707Z" transform="translate(0.0407715)" fill="white"/>
<path d="M0.0409287 6.78478e-08C0.853037 1.40569 2.17603 1.94503 3.52638 2.41292C5.46366 3.08413 7.48015 3.37578 9.52165 3.48715C12.852 3.66884 16.1475 3.47037 19.3385 2.41827C20.0416 2.18645 20.7399 1.88288 21.365 1.49371C21.9248 1.14527 22.3806 0.63342 22.8081 0.258704C22.9584 2.23809 23.0879 2.89718 21.0528 4.04528C19.3914 4.98268 17.5374 5.35861 15.6648 5.62378C12.8549 6.02174 10.0403 6.02032 7.23139 5.62267C5.32606 5.35295 3.45727 4.93922 1.75191 3.99829C0.598462 3.36204 -0.174551 2.51145 0.0339876 1.07968C0.0810442 0.756507 0.0409287 0.420798 0.0409287 6.78478e-08Z" transform="translate(0 6.95898)" fill="white"/>
<path d="M0.0142521 0.0291044C0.979575 1.6073 2.54479 2.15371 4.12491 2.61564C7.20849 3.51716 10.3746 3.68602 13.5662 3.47866C15.812 3.33273 18.0222 2.98995 20.1183 2.12986C21.1926 1.68905 22.2047 1.15426 22.8314 3.08399e-08C22.8314 0.715781 22.858 1.33536 22.8245 1.9516C22.7846 2.68597 22.314 3.18165 21.7545 3.59093C20.5262 4.48952 19.1051 4.94832 17.6367 5.25674C12.9191 6.2475 8.22189 6.22253 3.59177 4.79411C2.69974 4.51893 1.85773 4.03154 1.0548 3.54212C0.32211 3.09545 -0.0613854 2.3922 0.00802556 1.48906C0.0435476 1.02663 0.0142521 0.559245 0.0142521 0.0291044Z" transform="translate(0.0270996 11.8047)" fill="white"/>
<path d="M0.0153223 0.00636671C0.661457 1.19529 1.68476 1.72048 2.76114 2.16644C4.53275 2.90041 6.40246 3.2439 8.29922 3.4256C11.5332 3.73544 14.757 3.64803 17.9168 2.84352C19.0241 2.56157 20.0921 2.09995 21.1446 1.64479C21.851 1.3393 22.4179 0.816637 22.8267 1.35696e-06C22.8267 0.764997 22.8667 1.41327 22.8158 2.05447C22.7614 2.73984 22.3028 3.21258 21.7724 3.60205C20.5313 4.51357 19.0942 4.97722 17.6089 5.28686C12.9086 6.2668 8.22878 6.24315 3.615 4.82432C2.73776 4.5546 1.90738 4.08499 1.11487 3.61023C0.344718 3.14881 -0.067256 2.43 0.00899397 1.48522C0.0455368 1.03381 0.0153223 0.577233 0.0153223 0.00636671Z" transform="translate(13.0913 31.1797)" fill="white"/>
<path d="M0.0174967 -6.4147e-07C0.526646 0.985095 1.28741 1.4834 2.12075 1.89107C3.83285 2.72852 5.67459 3.12264 7.5494 3.35153C10.8954 3.76 14.2401 3.7219 17.5296 2.94457C18.7714 2.65111 19.9683 2.14067 21.153 1.65197C21.8639 1.3587 22.4187 0.818758 22.8337 0.0194038C22.8337 0.760146 22.8655 1.39205 22.8252 2.01941C22.7797 2.72953 22.3222 3.21894 21.7757 3.617C20.5321 4.52277 19.0954 4.98702 17.6108 5.30131C13.1545 6.24467 8.70081 6.24123 4.29648 5.04068C3.20254 4.74247 2.16107 4.19383 1.1591 3.64621C0.336378 3.19651 -0.0742691 2.42697 0.0110656 1.4442C0.0488333 1.01087 0.0174967 0.571674 0.0174967 -6.4147e-07Z" transform="translate(13.0884 36.0215)" fill="white"/>
<path d="M0.0135929 3.45407e-07C0.668506 1.19378 1.69048 1.71957 2.76788 2.16422C4.55603 2.90223 6.44197 3.24532 8.35587 3.42581C11.5732 3.72928 14.7782 3.63337 17.9224 2.83978C18.9827 2.57218 20.011 2.14947 21.0177 1.71523C21.7697 1.39084 22.3918 0.857159 22.8308 3.45407e-07C22.8308 0.74529 22.8636 1.37699 22.8221 2.00384C22.7753 2.71356 22.3143 3.20005 21.7691 3.59932C20.5274 4.50872 19.0903 4.96924 17.6059 5.28413C13.1504 6.22921 8.70558 6.19535 4.289 5.04392C3.13617 4.74338 2.03008 4.31146 1.06384 3.59012C0.35534 3.06119 -0.0626585 2.39928 0.00767114 1.47956C0.0421725 1.02885 0.0135929 0.573393 0.0135929 3.45407e-07Z" transform="translate(26.157 16.6348)" fill="white"/>
<path d="M0.0155495 -2.59055e-07C0.833272 1.41196 2.1533 1.96504 3.51039 2.41423C6.7329 3.48068 10.0639 3.68026 13.4275 3.4831C15.7069 3.34951 17.9496 2.99844 20.084 2.14168C21.4752 1.58325 22.205 1.02643 22.8154 0.0271836C22.8154 0.765298 22.8672 1.44207 22.8008 2.10722C22.7351 2.7655 22.269 3.21985 21.7493 3.59396C20.4865 4.50316 19.0314 4.97025 17.5306 5.28059C13.1079 6.19515 8.69427 6.16968 4.31086 5.02441C3.17456 4.72751 2.08451 4.30499 1.12306 3.60862C0.375976 3.06746 -0.0716225 2.38877 0.00942502 1.4259C0.0459678 0.991361 0.0155495 0.551463 0.0155495 -2.59055e-07Z" transform="translate(0.0249023 16.6582)" fill="white"/>
<path d="M12.56 3.47219C12.122 4.25517 11.7007 5.00814 11.2242 5.86005C8.00665 5.73049 4.65982 5.51959 1.61431 3.85772C1.27695 3.6736 0.970525 3.42005 0.684205 3.16124C0.210577 2.73307 -0.0298095 2.19828 0.00295651 1.54414C0.028169 1.04098 0.00795818 0.535497 0.00795818 2.46719e-07C1.29247 1.86802 3.3108 2.36239 5.31177 2.84301C7.45024 3.35658 9.63505 3.50918 11.8335 3.46825C12.0714 3.4638 12.3093 3.46502 12.547 3.46764C12.5748 3.46784 12.6023 3.49351 12.56 3.47219Z" transform="translate(0.0334473 21.582)" fill="white"/>
<path d="M1.33432 5.66794C0.85743 4.81684 0.429938 4.05417 -1.27095e-06 3.28695C0.537423 3.28695 1.14242 3.29494 1.74722 3.28554C4.23733 3.24714 6.69152 2.95812 9.06038 2.16281C9.68303 1.95372 10.313 1.70674 10.862 1.35739C11.488 0.958923 12.0273 0.42676 12.5465 -2.09711e-07C12.5465 0.479511 12.5828 1.12688 12.5367 1.76838C12.4872 2.45728 12.0231 2.92436 11.4989 3.31757C10.3943 4.14613 9.10437 4.56329 7.78546 4.90173C5.62096 5.45734 3.41267 5.63974 1.33432 5.66794Z" transform="translate(36.439 21.7637)" fill="white"/>
<path d="M11.3532 -1.20892e-06C11.3532 0.450608 11.3635 1.03754 11.3506 1.62397C11.3339 2.38644 10.8774 2.90436 10.3053 3.3294C9.08304 4.23739 7.65633 4.6693 6.19533 5.01572C4.17037 5.49594 2.11162 5.65167 -9.96826e-07 5.69179C-9.96826e-07 4.89253 -9.96826e-07 4.12986 -9.96826e-07 3.37518C1.21551 3.28382 2.41866 3.23349 3.61131 3.09485C5.77938 2.84281 7.91805 2.43293 9.81634 1.29109C10.3944 0.94346 10.8636 0.418574 11.3532 -1.20892e-06Z" transform="translate(37.6389 26.5898)" fill="white"/>
<path d="M0.00878314 1.48032e-06C0.820993 1.40478 2.14246 1.94877 3.49607 2.4115C5.74917 3.18165 8.092 3.45461 10.4626 3.53232C10.7495 3.54172 11.037 3.53363 11.3615 3.53363C11.3615 4.33117 11.3615 5.09445 11.3615 5.93089C10.6442 5.89713 9.9368 5.87712 9.23146 5.82831C7.01929 5.67521 4.83274 5.36083 2.78012 4.48993C2.05733 4.18322 1.3822 3.73574 0.744437 3.27281C0.198336 2.87636 -0.0330676 2.2769 0.00378146 1.58345C0.0300147 1.08625 0.00878314 0.586734 0.00878314 1.48032e-06Z" transform="translate(0.0322266 31.2148)" fill="white"/>
<path d="M4.98413e-07 5.91452C4.98413e-07 5.11557 4.98413e-07 4.37715 4.98413e-07 3.59811C0.896321 3.54717 1.78856 3.51797 2.67661 3.44177C4.88255 3.2526 7.04868 2.87919 9.08099 1.95493C9.99957 1.53717 10.836 1.01349 11.3745 -3.20735e-07C11.3745 0.721642 11.3998 1.3394 11.368 1.95423C11.33 2.68769 10.8673 3.18843 10.3063 3.59558C9.07742 4.4875 7.6547 4.92386 6.19483 5.26705C4.2702 5.71958 2.3123 5.88066 0.341441 5.92988C0.243143 5.9323 0.144641 5.92139 4.98413e-07 5.91452Z" transform="translate(37.615 31.2012)" fill="white"/>
<path d="M11.3713 3.49927C11.3713 4.3056 11.3713 5.05625 11.3713 5.88925C10.554 5.85328 9.74507 5.84388 8.94102 5.77708C7.11 5.62499 5.29858 5.35012 3.55259 4.75773C2.53643 4.41292 1.55325 3.99768 0.747161 3.26098C0.246177 2.8031 -0.0276903 2.25618 0.00221766 1.56425C0.0239596 1.0618 0.00650481 0.55763 0.00650481 1.38163e-06C1.07309 1.66804 2.78499 2.19464 4.50086 2.67536C6.55512 3.25098 8.66685 3.46582 10.7983 3.49887C10.9804 3.5017 11.1627 3.49927 11.3713 3.49927Z" transform="translate(0.0327148 26.4004)" fill="white"/>
</svg>
