<svg width="19" height="19" viewBox="0 0 19 19" version="1.1" xmlns="http://www.w3.org/2000/svg" xmlns:xlink="http://www.w3.org/1999/xlink">
<g id="Canvas" fill="none">
<path id="Shape" fill-rule="evenodd" clip-rule="evenodd" d="M 16.7437 8.37891C 16.7437 10.2676 16.1499 11.918 15.0811 13.3359L 18.6436 16.9941C 19.1187 17.4648 19.1187 18.1738 18.6436 18.6445C 18.4062 18.8809 18.0498 19 17.8125 19C 17.5747 19 17.2188 18.8809 16.981 18.6445L 13.4185 15.1055C 12.1123 16.168 10.3311 16.7578 8.43115 16.7578C 3.7998 16.7578 0 12.9805 0 8.37891C 0 3.77539 3.7998 0 8.43115 0C 13.0625 0 16.7437 3.77539 16.7437 8.37891ZM 2.375 8.375C 2.375 11.6797 5.10645 14.2754 8.43115 14.2754C 11.7563 14.2754 14.4873 11.6797 14.4873 8.375C 14.4873 5.07227 11.7563 2.35742 8.43115 2.35742C 5.10645 2.35742 2.375 5.07227 2.375 8.375Z" fill="#7686FF"/>
</g>
</svg>
