<svg width="784" height="784" viewBox="0 0 784 784" fill="none" xmlns="http://www.w3.org/2000/svg">
<path d="M0 20C0 8.95431 8.95431 0 20 0H176C187.046 0 196 8.95431 196 20V176C196 187.046 187.046 196 176 196H20C8.95431 196 0 187.046 0 176V20Z" transform="scale(4)" fill="#7686FF"/>
<mask id="mask0" mask-type="alpha" maskUnits="userSpaceOnUse" x="0" y="0" width="784" height="784">
<path d="M0 20C0 8.95431 8.95431 0 20 0H176C187.046 0 196 8.95431 196 20V176C196 187.046 187.046 196 176 196H20C8.95431 196 0 187.046 0 176V20Z" transform="scale(4)" fill="#7686FF"/>
</mask>
<g mask="url(#mask0)">
<path d="M4.1657 87.208C1.86959 87.208 0.00103206 85.3262 0.00103206 83.0137C0.0140647 82.8903 1.55812 65.3766 1.74176 61.2074C2.41234 45.8283 0.0247555 4.57413 -0.000124957 4.15864C0.00105982 1.88175 1.86959 0.000259682 4.1657 0.000259682C6.46181 0.000259682 8.33037 1.88211 8.33037 4.19342C8.35525 4.64452 10.7541 45.9839 10.0717 61.3523C9.8904 65.4467 8.34809 82.7859 8.33269 82.9604C8.33032 85.3263 6.46181 87.208 4.1657 87.208Z" transform="translate(428.809 310.503) scale(4)" fill="white"/>
<path d="M4.75691 1.18738C6.72602 1.18738 8.32919 2.80212 8.32919 4.78698V4.8206L8.3315 4.85538C8.35638 5.27205 10.7517 46.5817 10.0705 61.9204C9.88922 66.0017 8.34922 83.3261 8.33382 83.5018L8.32919 83.5539V83.6073C8.32919 85.5921 6.72602 87.2069 4.75691 87.2069C2.8032 87.2069 1.21069 85.6183 1.18463 83.656C1.29837 82.3715 2.74411 65.9327 2.9242 61.8265C3.58886 46.6183 1.26875 6.21111 1.18463 4.75452C1.2024 2.78509 2.79846 1.18738 4.75691 1.18738ZM4.75691 0.000259681C2.13025 0.000259681 -0.000152726 2.14446 -0.000152726 4.78698C-0.000152726 4.78698 2.41827 46.248 1.74057 61.7755C1.55693 65.9802 -0.000152726 83.6084 -0.000152726 83.6084C-0.000152726 86.2521 2.12906 88.3951 4.75691 88.3951C7.38475 88.3951 9.51397 86.2509 9.51397 83.6084C9.51397 83.6084 11.0693 66.1286 11.2541 61.9737C11.946 46.3976 9.51397 4.78698 9.51397 4.78698C9.51397 2.14446 7.38357 0.000259681 4.75691 0.000259681Z" transform="translate(426.443 308.128) scale(4)" fill="#7686FF"/>
<path d="M6.02743 87.208C3.73132 87.208 1.86276 85.3262 1.86276 83.0137C1.84499 82.787 0.303881 65.4479 0.12261 61.3535C-0.561009 45.9851 1.83791 4.64369 1.8616 4.2282C1.86279 1.88127 3.73132 0.000259681 6.02743 0.000259681C8.32353 0.000259681 10.1921 1.88211 10.1921 4.19342C10.1684 4.5733 7.7796 45.8272 8.45137 61.2063C8.63383 65.3754 10.179 82.889 10.1944 83.0647C10.1932 85.3262 8.32472 87.208 6.02743 87.208Z" transform="translate(299.139 310.503) scale(4)" fill="white"/>
<path d="M6.62118 1.18738C8.57962 1.18738 10.1757 2.78507 10.1935 4.75568C10.1093 6.21345 7.79041 46.6207 8.45389 61.8276C8.63279 65.9339 10.0797 82.3727 10.1935 83.6571C10.1674 85.6194 8.57488 87.208 6.62118 87.208C4.65089 87.208 3.0489 85.5933 3.0489 83.6084V83.5551L3.04427 83.5029C3.02887 83.3284 1.48887 66.0028 1.30759 61.9215C0.626344 46.5828 3.02289 5.27203 3.04658 4.85654L3.0489 4.82176V4.78814C3.05008 2.80328 4.65207 1.18738 6.62118 1.18738ZM6.62118 0.000259681C3.99452 0.000259681 1.86412 2.14446 1.86412 4.78698C1.86412 4.78698 -0.567944 46.3976 0.123969 61.9737C0.308795 66.1286 1.86412 83.6084 1.86412 83.6084C1.86412 86.2521 3.99333 88.3951 6.62118 88.3951C9.24902 88.3951 11.3782 86.2509 11.3782 83.6084C11.3782 83.6084 9.82234 65.9802 9.63751 61.7755C8.95863 46.248 11.3782 4.78698 11.3782 4.78698C11.3782 2.14446 9.24902 0.000259681 6.62118 0.000259681Z" transform="translate(296.764 308.128) scale(4)" fill="#7686FF"/>
<path d="M4.93972 87.2076C2.64361 87.2076 0.775051 85.3258 0.775051 83.0133C0.771497 82.821 0.387679 64.9622 0.205222 60.8476C-0.478397 45.4709 0.762019 4.6223 0.775051 4.21156C0.775051 1.88125 2.64361 -0.000148389 4.93972 -0.000148389C7.23583 -0.000148389 9.10439 1.8817 9.10439 4.19301C9.10795 4.6085 9.44681 45.3286 9.44918 60.6923C9.45037 65.9571 9.10795 82.8308 9.10439 83.0017C9.10439 85.3261 7.23464 87.2076 4.93972 87.2076Z" transform="translate(364.711 344.799) scale(4)" fill="white"/>
<path d="M5.53342 1.18697C7.50371 1.18697 9.10569 2.80146 9.10569 4.797C9.10806 5.20656 9.44693 45.9258 9.45049 61.2858C9.45167 66.5448 9.10925 83.4134 9.10569 83.6069C9.10569 85.5929 7.50252 87.2076 5.53342 87.2076C3.56431 87.2076 1.96114 85.5935 1.96114 83.5814C1.95758 83.4021 1.57376 65.5362 1.39131 61.4157C0.708873 46.0603 1.9481 5.23411 1.96114 4.78657C1.96114 2.80171 3.56431 1.18697 5.53342 1.18697ZM5.53342 -0.000148389C2.90675 -0.000148389 0.776354 2.14405 0.776354 4.78657C0.776354 4.78657 -0.485415 45.8917 0.207682 61.4678C0.392508 65.6227 0.776354 83.6057 0.776354 83.6057C0.776354 86.2506 2.90557 88.3936 5.53342 88.3936C8.16126 88.3936 10.2905 86.2494 10.2905 83.6057C10.2905 83.6057 10.6365 66.616 10.6353 61.2847C10.6329 45.7418 10.2905 4.78541 10.2905 4.78541C10.2905 2.14408 8.16008 -0.000148389 5.53342 -0.000148389Z" transform="translate(362.34 342.425) scale(4)" fill="#7686FF"/>
<path d="M7.81803 85.3055C5.80272 85.3055 3.84547 85.0849 2.55999 84.9009C1.49131 84.7477 0.584789 84.093 0.197365 83.1944C-0.104754 82.494 -0.0599779 81.776 0.331 81.0566C1.0395 79.7544 2.78861 78.6666 4.68426 78.3509C7.56565 77.8713 8.17092 76.3875 8.17092 75.2277V4.1944C8.17092 1.8819 10.4252 8.3469e-05 13.1953 8.3469e-05C15.9653 8.3469e-05 18.2202 1.8819 18.2202 4.1944V69.7037C18.2202 69.7785 18.1905 77.2575 15.8032 82.4072C14.693 84.8028 10.8487 85.3055 7.81803 85.3055Z" transform="translate(206.533 204.483) scale(4)" fill="white"/>
<path d="M13.7871 1.1872C16.2313 1.1872 18.2197 2.80192 18.2197 4.78796V70.2973C18.2197 70.3709 18.1875 77.7253 15.8582 82.7515C14.8796 84.8622 11.2688 85.3055 8.41107 85.3055C6.4313 85.3055 4.50346 85.0894 3.23575 84.9078C2.36967 84.7844 1.6399 84.2637 1.33304 83.5514C1.10437 83.0208 1.13965 82.4898 1.44295 81.9342C2.05904 80.8017 3.67554 79.8136 5.37333 79.5299C8.83763 78.9529 9.35519 76.9585 9.35519 75.8224V70.2973V4.78796C9.35638 2.80192 11.3441 1.1872 13.7871 1.1872ZM13.7871 8.34691e-05C10.6854 8.34691e-05 8.17041 2.14425 8.17041 4.78796V70.2973C8.17041 70.2973 8.17041 71.4408 8.17041 75.8224C8.17041 77.3609 6.86845 78.0764 5.17895 78.359C2.00373 78.8884 -0.87062 81.4366 0.245444 84.0233C0.70514 85.0893 1.75348 85.8946 3.0674 86.0822C4.46426 86.2816 6.4076 86.4926 8.41107 86.4926C11.9808 86.4926 15.74 85.826 16.9331 83.2523C19.4045 77.9174 19.4044 70.2973 19.4044 70.2973V4.78796C19.4044 2.14425 16.8901 8.34691e-05 13.7871 8.34691e-05Z" transform="translate(204.16 202.109) scale(4)" fill="#A775FF"/>
<g opacity="0.9">
<path opacity="0.9" d="M5.61679 0.000194761C2.51503 0.000194761 6.94208e-05 0.491429 6.94208e-05 1.09804V19.1621C6.94208e-05 19.7688 2.51503 20.26 5.61679 20.26C8.71974 20.26 11.2341 19.7688 11.2341 19.1621V1.09804C11.2341 0.491429 8.71974 0.000194761 5.61679 0.000194761Z" transform="translate(236.842 362.351) scale(4)" fill="#7686FF"/>
</g>
<g opacity="0.9">
<path opacity="0.9" d="M5.38367 0.000139115C2.79492 0.000139115 8.7933e-05 2.52361 8.7933e-05 3.13023L0.869584 19.6015C0.869584 20.2081 2.79492 20.2588 5.38367 20.2588C7.97242 20.2588 10.3635 19.6354 10.3635 19.0288L10.0707 1.09799C10.0707 0.491373 7.97124 0.000139115 5.38367 0.000139115Z" transform="translate(428.379 362.36) scale(4)" fill="#7686FF"/>
</g>
<g opacity="0.9">
<path opacity="0.9" d="M5.50575 0.000194761C2.8625 0.000194761 0.719186 0.491429 0.719186 1.09804L0.000101817 19.4775C0.000101817 20.0841 2.8625 20.2588 5.50575 20.2588C8.149 20.2588 9.56687 20.3461 9.56687 19.7395L10.2923 1.09689C10.2935 0.491457 8.15018 0.000194761 5.50575 0.000194761Z" transform="translate(298.938 362.351) scale(4)" fill="#7686FF"/>
</g>
<g opacity="0.9">
<path opacity="0.9" d="M5.13376 0.000194761C2.29739 0.000194761 8.7933e-05 0.491429 8.7933e-05 1.09804V19.1621C8.7933e-05 19.7688 2.29857 20.26 5.13376 20.26C7.96894 20.26 10.0707 19.7641 10.0707 19.1587L10.2686 1.09804C10.2686 0.491429 7.96894 0.000194761 5.13376 0.000194761Z" transform="translate(363.809 371.848) scale(4)" fill="#7686FF"/>
</g>
<path d="M125.944 58.868C125.94 58.8526 125.433 57.5027 125.429 57.4873L124.928 55.8805C124.928 55.8805 124.717 55.2637 123.214 52.5927C117.135 41.79 99.1026 21.7828 97.919 20.5221C88.5865 10.5823 76.8148 -0.142214 62.2657 0.00142724C47.7189 0.248347 36.2716 11.2849 27.24 21.4704C26.0955 22.7619 9.14551 42.9699 3.39103 53.9317C1.9681 56.6419 0.852539 59.9612 0.852539 59.9612C0.449713 61.7775 0.118761 64.2118 0.0299027 65.9142C-0.63239 78.5831 9.76429 88.8018 21.3467 88.6154C24.0788 88.5715 26.6709 87.9724 29.0345 86.9194C29.1269 86.8672 29.2171 86.814 29.2989 86.7594C35.8649 82.3101 54.1889 81.3913 63.4811 81.2655C72.7733 81.1421 91.3551 81.2964 98.0503 85.5677C98.1333 85.6211 98.2246 85.672 98.3194 85.7218C100.715 86.7095 103.33 87.7756 106.064 87.746C117.647 87.6225 126.882 77.1763 126.693 64.4824C126.657 62.1533 126.563 60.9787 125.944 58.868Z" transform="translate(124 84) scale(4)" fill="white"/>
<path d="M125.944 58.868C125.94 58.8526 125.433 57.5027 125.429 57.4873L124.928 55.8805C124.928 55.8805 124.717 55.2637 123.214 52.5927C117.135 41.79 99.1026 21.7828 97.919 20.5221C88.5865 10.5823 76.8148 -0.142214 62.2657 0.00142724C47.7189 0.248347 36.2716 11.2849 27.24 21.4704C26.0955 22.7619 9.14551 42.9699 3.39103 53.9317C1.9681 56.6419 0.852539 59.9612 0.852539 59.9612C0.449713 61.7775 0.118761 64.2118 0.0299027 65.9142C-0.63239 78.5831 9.76429 88.8018 21.3467 88.6154C24.0788 88.5715 26.6709 87.9724 29.0345 86.9194C29.1269 86.8672 29.2171 86.814 29.2989 86.7594C35.8649 82.3101 54.1889 81.3914 63.4811 81.2655C72.7733 81.1421 91.3551 81.2964 98.0503 85.5677C98.1333 85.6211 98.2246 85.672 98.3194 85.7218C100.715 86.7095 103.33 87.7756 106.064 87.746C117.647 87.6225 126.882 77.1763 126.693 64.4824C126.657 62.1533 126.563 60.9787 125.944 58.868Z" transform="translate(124 84) scale(4)" stroke="#7686FF" stroke-width="2" stroke-miterlimit="10"/>
<path d="M9.54602 27.8454C6.7606 27.8454 4.26903 26.9084 2.88046 25.3378C1.13054 23.3589 7.86769e-05 19.3551 7.86769e-05 15.1361V4.17495C2.88858 4.74121 5.05434 5.47347 6.44291 6.35906C6.52584 6.41248 6.61716 6.46339 6.71076 6.51325C7.24746 6.73642 7.76363 6.948 8.28256 7.14506L8.28025 15.2717C8.25063 17.285 8.37619 19.8465 9.14511 20.6276C9.39866 20.8852 9.67127 20.9395 9.8561 20.9395C10.2708 20.9395 10.6632 20.6796 11.0565 20.1454C12.778 17.8079 14.7116 12.2624 15.99 8.59418L16.4389 7.312C18.1557 2.46026 21.0249 0.000343151 24.9679 0.000343151C25.9797 0.000343151 26.8434 0.0378671 27.6087 0.118591C29.9191 0.358388 30.7771 0.938665 31.7688 1.61176C32.0354 1.79101 32.3077 1.97726 32.6134 2.16126C33.0162 2.40462 33.9845 3.22575 35.9595 5.98461C36.3967 6.59716 36.554 7.29089 36.4142 7.99366C36.2507 8.80446 35.7142 9.52836 34.9014 10.0317C34.2237 10.4519 33.413 10.6635 32.4948 10.6635C31.2235 10.6635 29.7842 10.2521 28.4406 9.50538C27.6516 9.06615 26.8984 8.84111 26.2053 8.84111C25.3973 8.84111 24.2442 9.15729 23.3272 10.6542C21.5263 13.5971 20.4979 16.1945 20.0453 17.4813C19.7361 18.3622 19.4563 19.0631 19.166 19.6863C18.9302 20.192 18.7099 20.6793 18.499 21.1458C16.8948 24.7001 15.9268 26.8468 12.3547 27.5579C11.3997 27.749 10.4547 27.8454 9.54602 27.8454Z" transform="translate(483.67 400.709) scale(4)" fill="white"/>
<path d="M25.5591 1.18751C26.5484 1.18751 27.3934 1.22393 28.1398 1.30228C30.3044 1.52665 31.0652 2.04397 32.0297 2.69807C32.3033 2.88326 32.5852 3.07384 32.8992 3.26497C33.1918 3.44185 34.086 4.15294 36.0694 6.92485C36.4094 7.39851 36.533 7.93359 36.4252 8.47135C36.296 9.11951 35.8537 9.70434 35.1808 10.121C34.5979 10.4819 33.894 10.6647 33.086 10.6647C31.9131 10.6647 30.5758 10.28 29.3199 9.58195C28.4408 9.09286 27.5915 8.84464 26.7965 8.84464C25.8368 8.84464 24.4714 9.20864 23.4122 10.9406C21.6765 13.779 20.6411 16.2811 20.0783 17.8813C19.7667 18.7669 19.5029 19.4311 19.2209 20.033C18.9828 20.5422 18.7619 21.0317 18.5499 21.5006C16.9717 24.9955 16.1037 26.9213 12.8313 27.5742C11.9131 27.757 11.0057 27.8501 10.1372 27.8501C7.51886 27.8501 5.19319 26.9866 3.91481 25.5431C2.55586 24.0058 1.18368 20.3771 1.18368 15.7355V5.50124C3.64565 6.02713 5.50333 6.68413 6.71536 7.45813C6.81014 7.51748 6.91299 7.57739 7.02081 7.63318L7.07172 7.661L7.12668 7.68303C7.49514 7.83498 7.88095 7.99355 8.28022 8.14907V15.5824L8.2779 15.8665C8.21274 20.5212 9.04209 21.3643 9.31459 21.6409C9.625 21.9555 10.0267 22.129 10.4473 22.129C11.3608 22.129 11.9343 21.3513 12.1238 21.0949C13.901 18.6827 15.8521 13.0818 17.1435 9.3756L17.4542 8.48874L17.4802 8.41454L17.5896 8.10501C19.2115 3.51444 21.8933 1.18751 25.5591 1.18751ZM25.5591 0.000398797C20.0688 0.000398797 17.6081 4.49391 16.4719 7.70506C16.4292 7.82614 16.3821 7.96284 16.3359 8.09342C15.163 11.4399 12.9926 17.9161 11.1716 20.3877C10.8861 20.7747 10.6475 20.9395 10.4485 20.9395C9.44377 20.9395 9.45199 16.7339 9.46384 15.8815C9.46503 15.7795 9.46616 15.6811 9.46616 15.579V7.32829C8.82282 7.09205 8.1916 6.83572 7.57907 6.58286C7.50087 6.54131 7.42277 6.49813 7.35287 6.45302C5.65034 5.368 3.03428 4.5993 5.09086e-05 4.0556V15.732C5.09086e-05 20.3879 1.32597 24.4013 3.02969 26.3268C4.36257 27.8344 6.85298 29.0337 10.1384 29.0337C11.0542 29.0337 12.0314 28.9412 13.0633 28.7346C17.4363 27.8633 18.2538 24.9012 20.2952 20.5315C20.64 19.7931 20.9294 19.0329 21.1971 18.272C21.6841 16.8878 22.6895 14.3946 24.424 11.5574C25.1053 10.4439 25.9375 10.0294 26.7976 10.0294C27.4481 10.0294 28.1151 10.267 28.7466 10.6172C30.0511 11.3425 31.6038 11.8495 33.0872 11.8495C34.0504 11.8495 34.9852 11.6353 35.8038 11.1296C37.6367 9.99591 38.2126 7.87931 37.0326 6.2316C35.8762 4.61712 34.462 2.82283 33.513 2.24827C32.0201 1.34368 31.3316 0.441459 28.263 0.122125C27.5154 0.0437749 26.6325 0.000398797 25.5591 0.000398797Z" transform="translate(481.305 398.326) scale(4)" fill="#A775FF"/>
<g opacity="0.9">
<path opacity="0.9" d="M4.17169 5.90067C2.02131 5.90067 0.549817 5.73246 7.86769e-05 5.58882V-0.000129841C3.35538 0.655158 6.0474 1.59068 7.81628 2.71725C7.90751 2.77661 8.01502 2.83764 8.12521 2.89462L8.3433 2.98505V5.58766C7.79356 5.73249 6.32207 5.90067 4.17169 5.90067Z" transform="translate(483.67 417.408) scale(4)" fill="#7686FF"/>
<path opacity="0.9" d="M1.18483 1.44255C4.1148 2.07172 6.53427 2.94028 8.08989 3.93271C8.16927 3.98376 8.25447 4.03243 8.34096 4.0811V5.81308C7.68815 5.9128 6.48912 6.02291 4.7629 6.02291C3.03549 6.02291 1.83768 5.9128 1.18368 5.81308V1.44255H1.18483ZM5.09086e-05 0.000389522V6.62922C5.09086e-05 6.95093 2.13265 7.20887 4.76405 7.20887C7.39427 7.20887 9.5269 6.94975 9.5269 6.62922V3.30205C9.34918 3.22845 9.17002 3.15652 8.99467 3.08411C8.90108 3.03425 8.8086 2.98334 8.72567 2.92992C6.70562 1.64309 3.6006 0.64618 5.09086e-05 0.000389522Z" transform="translate(481.305 414.551) scale(4)" fill="#7686FF"/>
</g>
<path d="M5.68201 11.1633C8.82022 11.1633 11.3647 8.66401 11.3647 5.58126C11.3647 2.49851 8.82022 0.00042662 5.68201 0.00042662C2.54381 0.00042662 -7.86769e-05 2.49851 -7.86769e-05 5.58126C-7.86769e-05 8.66401 2.54381 11.1633 5.68201 11.1633Z" transform="translate(261.943 255.274) scale(4)" fill="black"/>
<path d="M5.68238 11.1633C8.82059 11.1633 11.3645 8.66401 11.3645 5.58126C11.3645 2.49851 8.82059 0.00042662 5.68238 0.00042662C2.54418 0.00042662 -0.000286939 2.49851 -0.000286939 5.58126C-0.000286939 8.66401 2.54418 11.1633 5.68238 11.1633Z" transform="translate(444.73 255.274) scale(4)" fill="black"/>
<path d="M11.9981 -9.27434e-06H2.20972C0.994134 -9.27434e-06 -0.000175866 0.977107 -0.000175866 2.17135C-0.000175866 3.36558 0.994134 4.3427 2.20972 4.3427H11.9981C13.2136 4.3427 14.2079 3.36558 14.2079 2.17135C14.2079 0.977107 13.2136 -9.27434e-06 11.9981 -9.27434e-06Z" transform="translate(472.557 307.975) scale(4)" fill="#F2C94C"/>
<path d="M11.9984 -0.000241133H2.20949C0.993902 -0.000241133 0.000171238 0.976875 0.000171238 2.17111C0.000171238 3.36535 0.993902 4.34247 2.20949 4.34247H11.9984C13.214 4.34247 14.2077 3.36535 14.2077 2.17111C14.2077 0.976875 13.214 -0.000241133 11.9984 -0.000241133Z" transform="translate(222.805 309.399) scale(4)" fill="#F2C94C"/>
<path d="M6.26291 0.577439C5.71198 1.16387 4.79946 1.79465 3.854 1.89555C3.39786 1.94304 2.92994 1.87054 2.46906 1.60225C2.00225 1.33159 1.50475 0.841776 1.0332 0.000111292L-9.25611e-06 0.580917C0.548545 1.56029 1.18241 2.22811 1.87551 2.63055C2.57453 3.03535 3.29713 3.14813 3.97838 3.07571C5.31008 2.93326 6.46675 2.0905 7.1243 1.3901L6.26291 0.577439Z" transform="translate(362.342 312.506) scale(4)" fill="#561272"/>
</g>
</svg>
