<?xml version="1.0" encoding="iso-8859-1"?>
<!-- Generator: Adobe Illustrator 18.1.1, SVG Export Plug-In . SVG Version: 6.00 Build 0)  -->
<svg version="1.1" id="Calque_1" xmlns="http://www.w3.org/2000/svg" xmlns:xlink="http://www.w3.org/1999/xlink" x="0px" y="0px"
	 viewBox="0 0 1920 1080" style="enable-background:new 0 0 1920 1080;" xml:space="preserve">
<g>
	<path style="fill:#FFFFFF;" d="M554.102,464.731v50.12h57.941v-50.12h15.64v119.791h-15.64v-56.163h-57.941v56.163H538.64V464.731
		H554.102z"/>
	<path style="fill:#FFFFFF;" d="M731.823,540.8c0,31.814-22.04,45.676-42.833,45.676c-23.284,0-41.234-17.062-41.234-44.255
		c0-28.792,18.84-45.676,42.655-45.676C715.115,496.545,731.823,514.495,731.823,540.8z M663.574,541.688
		c0,18.84,10.841,33.058,26.125,33.058c14.93,0,26.127-14.041,26.127-33.413c0-14.573-7.287-33.058-25.771-33.058
		C671.572,508.275,663.574,525.337,663.574,541.688z"/>
	<path style="fill:#FFFFFF;" d="M751.541,521.783c0-8.887-0.177-16.174-0.711-23.283h13.685l0.711,13.864h0.534
		c4.798-8.176,12.796-15.818,27.015-15.818c11.73,0,20.616,7.11,24.349,17.239h0.356c2.666-4.798,6.043-8.53,9.597-11.196
		c5.155-3.91,10.842-6.043,19.018-6.043c11.375,0,28.259,7.465,28.259,37.323v50.654h-15.285v-48.698
		c0-16.529-6.043-26.482-18.661-26.482c-8.887,0-15.818,6.576-18.484,14.218c-0.711,2.133-1.244,4.976-1.244,7.821v53.141h-15.286
		V532.98c0-13.685-6.043-23.638-17.95-23.638c-9.775,0-16.885,7.819-19.373,15.64c-0.889,2.31-1.244,4.976-1.244,7.642v51.898
		h-15.286V521.783z"/>
	<path style="fill:#FFFFFF;" d="M913.62,462.776c-4.088,14.929-11.73,33.946-16.707,42.122l-9.953,1.244
		c3.91-10.485,8.531-28.97,10.487-41.767L913.62,462.776z"/>
	<path style="fill:#FFFFFF;" d="M931.212,466.33c7.819-1.599,19.017-2.488,29.681-2.488c16.529,0,27.193,3.021,34.657,9.775
		c6.043,5.332,9.42,13.507,9.42,22.75c0,15.817-9.953,26.304-22.571,30.569v0.534c9.242,3.199,14.752,11.729,17.595,24.17
		c3.91,16.707,6.754,28.26,9.242,32.881h-15.996c-1.955-3.377-4.621-13.685-7.998-28.614c-3.554-16.529-9.953-22.75-23.993-23.284
		h-14.575v51.898h-15.462V466.33z M946.673,520.894h15.818c16.529,0,27.015-9.064,27.015-22.75
		c0-15.463-11.196-22.216-27.547-22.394c-7.465,0-12.797,0.711-15.286,1.422V520.894z"/>
	<path style="fill:#FFFFFF;" d="M1045.481,474.328c0.178,5.332-3.734,9.598-9.953,9.598c-5.51,0-9.42-4.266-9.42-9.598
		c0-5.509,4.088-9.774,9.774-9.774C1041.748,464.554,1045.481,468.819,1045.481,474.328z M1028.064,584.522V498.5h15.639v86.022
		H1028.064z"/>
	<path style="fill:#FFFFFF;" d="M1143.762,498.5c-0.354,6.221-0.711,13.152-0.711,23.638v49.943c0,19.728-3.91,31.814-12.264,39.279
		c-8.352,7.819-20.438,10.308-31.28,10.308c-10.307,0-21.682-2.489-28.614-7.109l3.91-11.908c5.689,3.554,14.573,6.754,25.237,6.754
		c15.998,0,27.727-8.353,27.727-30.037v-9.597h-0.354c-4.799,7.998-14.041,14.396-27.373,14.396
		c-21.327,0-36.612-18.129-36.612-41.945c0-29.147,19.018-45.676,38.745-45.676c14.93,0,23.106,7.821,26.838,14.929h0.357
		l0.711-12.974H1143.762z M1127.588,532.447c0-2.666-0.176-4.976-0.887-7.11c-2.844-9.064-10.488-16.529-21.863-16.529
		c-14.928,0-25.591,12.62-25.591,32.525c0,16.885,8.531,30.926,25.416,30.926c9.596,0,18.305-6.043,21.682-15.997
		c0.889-2.666,1.244-5.687,1.244-8.353V532.447z"/>
	<path style="fill:#FFFFFF;" d="M1168.989,458.332h15.641v53.675h0.354c2.488-4.444,6.4-8.353,11.196-11.019
		c4.623-2.666,10.131-4.444,15.998-4.444c11.551,0,30.036,7.11,30.036,36.79v51.187h-15.641v-49.409
		c0-13.864-5.154-25.594-19.905-25.594c-10.131,0-18.129,7.11-20.973,15.64c-0.889,2.133-1.065,4.444-1.065,7.465v51.898h-15.641
		V458.332z"/>
	<path style="fill:#FFFFFF;" d="M1285.748,473.795V498.5h22.395v11.909h-22.395v46.387c0,10.664,3.023,16.707,11.732,16.707
		c4.088,0,7.108-0.533,9.063-1.067l0.711,11.73c-3.02,1.244-7.819,2.133-13.862,2.133c-7.287,0-13.151-2.31-16.885-6.577
		c-4.442-4.621-6.043-12.263-6.043-22.394v-46.92h-13.33V498.5h13.33v-20.616L1285.748,473.795z"/>
	<path style="fill:#FFFFFF;" d="M1360.386,575.457c0-6.398,4.442-11.019,10.485-11.019c6.4,0,10.488,4.621,10.488,11.019
		c0,6.22-4.088,11.019-10.488,11.019C1364.653,586.477,1360.386,581.677,1360.386,575.457z M1364.829,550.042l-2.488-85.311h17.063
		l-2.49,85.311H1364.829z"/>
</g>
</svg>
